<svg width="314" height="313" viewBox="0 0 314 313" fill="none" xmlns="http://www.w3.org/2000/svg">
<g clip-path="url(#clip0_120_291)">
<ellipse cx="156.851" cy="156.543" rx="156.387" ry="156.038" fill="url(#paint0_linear_120_291)"/>
<g filter="url(#filter0_f_120_291)">
<path d="M387.129 58.1281C434.551 183.914 426.983 279.263 188.489 265.281C38.862 218.62 -38.8252 310.774 -191.838 284.469C-61.0934 58.1281 -34.0461 224.947 66.656 185.76C192.198 136.906 142.967 -209.079 387.129 58.1281Z" fill="url(#paint1_linear_120_291)"/>
</g>
</g>
<defs>
<filter id="filter0_f_120_291" x="-286.641" y="-136.937" width="791.669" height="521.028" filterUnits="userSpaceOnUse" color-interpolation-filters="sRGB">
<feFlood flood-opacity="0" result="BackgroundImageFix"/>
<feBlend mode="normal" in="SourceGraphic" in2="BackgroundImageFix" result="shape"/>
<feGaussianBlur stdDeviation="47.4014" result="effect1_foregroundBlur_120_291"/>
</filter>
<linearGradient id="paint0_linear_120_291" x1="58.7021" y1="94.417" x2="-49.7064" y2="-43.5218" gradientUnits="userSpaceOnUse">
<stop stop-color="#E3E0FF"/>
<stop offset="1" stop-color="white"/>
</linearGradient>
<linearGradient id="paint1_linear_120_291" x1="344.888" y1="11.9367" x2="84.1343" y2="420.569" gradientUnits="userSpaceOnUse">
<stop offset="0.0238694" stop-color="#6DC1DC"/>
<stop offset="0.233824" stop-color="#A690FC"/>
<stop offset="0.60602" stop-color="#FC96BB"/>
<stop offset="1" stop-color="#FFC397"/>
</linearGradient>
<clipPath id="clip0_120_291">
<path d="M0.464294 156.543C0.464294 70.3659 70.6739 0.505463 156.851 0.505463V0.505463C243.028 0.505463 313.238 70.3659 313.238 156.543V156.543C313.238 242.72 243.028 312.581 156.851 312.581V312.581C70.6739 312.581 0.464294 242.72 0.464294 156.543V156.543Z" fill="white"/>
</clipPath>
</defs>
</svg>
